<?xml version="1.0" encoding="iso-8859-1"?>
<!-- Uploaded to: SVG Repo, www.svgrepo.com, Generator: SVG Repo Mixer Tools -->
<svg fill="#D7263D" height="800px" width="800px" version="1.1" id="Layer_1" xmlns="http://www.w3.org/2000/svg" xmlns:xlink="http://www.w3.org/1999/xlink" 
	 viewBox="0 0 512 512" xml:space="preserve">
<g>
	<g>
		<path d="M488.695,211.081c-4.988,0.623-10.62,1.204-16.768,1.655c-5.407,0.398-11.211,0.688-17.349,0.817
			c-7.987,0.183-16.521,0.086-25.454-0.419c-31.591-1.795-60.506-8.18-86.282-19.015c-0.57,12.136-2.053,27.27-5.514,43.19
			c-11.125,51.144-37.31,85.724-75.716,99.998L256,339.392l-5.622-2.085c-38.396-14.275-64.58-48.854-75.705-99.998
			c-3.461-15.93-4.945-31.054-5.514-43.2c-25.776,10.846-54.691,17.231-86.293,19.026c-8.922,0.505-17.467,0.602-25.443,0.419
			c-6.138-0.129-11.942-0.419-17.349-0.817c-6.148-0.451-11.781-1.032-16.768-1.655c-9.9,24.508-15.027,50.563-15.027,76.963
			c0,60.152,25.991,116.605,73.19,158.957C128.173,488.922,190.161,512,256,512s127.827-23.078,174.532-64.999
			c47.199-42.351,73.19-98.805,73.19-158.957C503.721,261.644,498.595,235.589,488.695,211.081z"/>
	</g>
</g>
<g>
	<g>
		<path d="M469.121,173.771c-21.616-32.903-52.401-60.442-89.023-79.64c-32.914-17.241-69.933-27.356-107.974-29.592V0h-32.247
			v64.539c-38.041,2.236-75.06,12.351-107.974,29.592c-36.622,19.198-67.407,46.737-89.023,79.64
			c-1.408,2.15-2.784,4.31-4.106,6.492c5.622,0.473,11.824,0.849,18.488,1.01c6.277,0.151,12.953,0.107,19.929-0.183
			c30.774-1.333,67.278-7.901,100.095-26.959l26.668-15.5l-2.494,30.742c-0.086,1.075-7.6,106.136,54.541,135.352
			c62.151-29.216,54.616-134.277,54.53-135.363l-2.419-30.667l26.593,15.436c32.828,19.069,69.342,25.626,100.116,26.959
			c6.965,0.301,13.651,0.333,19.918,0.183c6.664-0.161,12.867-0.537,18.488-1.01C471.905,178.081,470.529,175.921,469.121,173.771z"
			/>
	</g>
</g>
</svg>
